# Blender v3.2.1 OBJ File: ''
# www.blender.org
mtllib Roughy.mtl
o Cube
v 1.000000 0.503839 -1.000000
v 1.000000 -1.000000 -1.000000
v 1.000000 0.503839 1.000000
v 1.000000 -1.000000 1.000000
v -1.000000 0.503839 -1.000000
v -1.000000 -1.000000 -1.000000
v -1.000000 0.503839 1.000000
v -1.000000 -1.000000 1.000000
v 0.289350 1.416324 0.289350
v -0.289350 1.416324 0.289350
v 0.289350 1.416324 -0.289350
v -0.289350 1.416324 -0.289350
v 0.289350 2.305364 0.289350
v -0.289350 2.305364 0.289350
v 0.289350 2.305364 -0.289350
v -0.289350 2.305364 -0.289350
v 0.289350 3.388935 0.289350
v -0.289350 3.388935 0.289350
v 0.289350 3.388935 -0.289350
v -0.289350 3.388935 -0.289350
v -0.289350 3.388935 1.503321
v -0.289350 2.305364 1.003321
v 0.289350 3.388935 1.503321
v 0.289350 2.305364 1.503321
v -0.289350 2.305364 -1.000449
v 0.289350 2.305364 -1.000449
v -0.289350 3.388935 -1.000449
v 0.289350 3.388935 -1.000449
v -0.289350 2.305364 -1.500449
v 0.289350 2.305364 -1.500449
v -0.289350 3.388935 -1.500449
v 0.289350 3.388935 -1.500449
v 0.289350 2.305364 1.003321
v -0.289350 2.305364 1.503321
v 0.289350 3.388935 1.003321
v -0.289350 3.388935 1.003321
v -0.289350 1.576873 1.003321
v 0.289350 1.576873 1.503321
v -0.289350 1.576873 -1.000449
v 0.289350 1.576873 -1.000449
v -0.289350 1.576873 -1.500449
v 0.289350 1.576873 -1.500449
v 0.289350 1.576873 1.003321
v -0.289350 1.576873 1.503321
v 0.289350 3.562197 0.289350
v -0.289350 3.562197 0.289350
v 0.289350 3.562197 -0.289350
v -0.289350 3.562197 -0.289350
v 0.517050 3.845718 0.517050
v -0.517050 3.845718 0.517050
v 0.517050 3.845718 -0.517050
v -0.517050 3.845718 -0.517050
v 0.517050 4.523018 0.517050
v -0.517050 4.523018 0.517050
v 0.517050 4.523018 -0.517050
v -0.517050 4.523018 -0.517050
v 0.210939 4.806539 0.210939
v -0.210939 4.806539 0.210939
v 0.210939 4.806539 -0.210939
v -0.210939 4.806539 -0.210939
vt 0.625000 1.000000
vt 0.625000 0.750000
vt 0.625000 0.750000
vt 0.625000 1.000000
vt 0.375000 0.750000
vt 0.375000 1.000000
vt 0.375000 0.000000
vt 0.625000 0.000000
vt 0.625000 0.250000
vt 0.375000 0.250000
vt 0.125000 0.500000
vt 0.375000 0.500000
vt 0.125000 0.750000
vt 0.625000 0.500000
vt 0.625000 0.500000
vt 0.625000 0.250000
vt 0.625000 0.250000
vt 0.625000 0.500000
vt 0.625000 0.000000
vt 0.625000 0.000000
vt 0.625000 0.000000
vt 0.625000 0.250000
vt 0.625000 0.750000
vt 0.625000 1.000000
vt 0.625000 0.000000
vt 0.625000 0.250000
vt 0.625000 0.750000
vt 0.875000 0.750000
vt 0.875000 0.750000
vt 0.625000 0.750000
vt 0.625000 0.500000
vt 0.625000 0.500000
vt 0.625000 0.500000
vt 0.625000 0.000000
vt 0.625000 0.000000
vt 0.625000 0.000000
vt 0.625000 0.000000
vt 0.625000 0.750000
vt 0.625000 1.000000
vt 0.625000 0.250000
vt 0.625000 0.250000
vt 0.625000 0.250000
vt 0.625000 0.250000
vt 0.875000 0.500000
vt 0.875000 0.500000
vt 0.625000 0.500000
vt 0.625000 0.500000
vt 0.625000 0.500000
vt 0.625000 0.250000
vt 0.875000 0.500000
vt 0.625000 0.750000
vt 0.625000 0.750000
vt 0.625000 0.000000
vt 0.625000 0.000000
vt 0.875000 0.750000
vt 0.625000 1.000000
vt 0.625000 1.000000
vt 0.625000 0.500000
vt 0.625000 0.250000
vt 0.625000 1.000000
vt 0.625000 0.750000
vt 0.625000 0.750000
vt 0.625000 1.000000
vt 0.625000 0.750000
vt 0.625000 0.500000
vt 0.625000 0.500000
vt 0.625000 0.750000
vt 0.875000 0.750000
vt 0.875000 0.500000
vt 0.625000 0.250000
vt 0.625000 0.000000
vt 0.625000 0.000000
vt 0.625000 0.250000
vt 0.875000 0.750000
vt 0.875000 0.500000
vt 0.625000 0.500000
vt 0.875000 0.500000
vt 0.875000 0.500000
vt 0.625000 0.500000
vt 0.625000 0.750000
vt 0.875000 0.750000
vt 0.875000 0.750000
vt 0.625000 0.750000
vt 0.625000 0.000000
vt 0.625000 0.250000
vn 0.0000 0.6144 0.7890
vn 0.0000 0.0000 1.0000
vn -1.0000 0.0000 0.0000
vn 0.0000 -1.0000 0.0000
vn 1.0000 0.0000 0.0000
vn 0.0000 0.0000 -1.0000
vn -0.7890 0.6144 0.0000
vn 0.7890 0.6144 0.0000
vn 0.0000 0.6144 -0.7890
vn 0.0000 1.0000 0.0000
vn 0.7797 -0.6262 0.0000
vn -0.7797 -0.6262 0.0000
vn 0.0000 -0.6262 0.7797
vn 0.0000 -0.6262 -0.7797
vn 0.0000 0.7337 -0.6795
vn 0.6795 0.7337 0.0000
vn -0.6795 0.7337 0.0000
vn 0.0000 0.7337 0.6795
usemtl Material
s off
f 7/1/1 3/2/1 9/3/1 10/4/1
f 4/5/2 3/2/2 7/1/2 8/6/2
f 8/7/3 7/8/3 5/9/3 6/10/3
f 6/11/4 2/12/4 4/5/4 8/13/4
f 2/12/5 1/14/5 3/2/5 4/5/5
f 6/10/6 5/9/6 1/14/6 2/12/6
f 11/15/6 12/16/6 16/17/6 15/18/6
f 5/9/7 7/8/7 10/19/7 12/16/7
f 3/2/8 1/14/8 11/15/8 9/3/8
f 1/14/9 5/9/9 12/16/9 11/15/9
f 16/17/3 14/20/3 18/21/3 20/22/3
f 9/3/5 11/15/5 15/18/5 13/23/5
f 12/16/3 10/19/3 14/20/3 16/17/3
f 10/4/2 9/3/2 13/23/2 14/24/2
f 20/22/3 18/21/3 46/25/3 48/26/3
f 17/27/10 18/28/10 36/29/10 35/30/10
f 19/31/5 15/18/5 26/32/5 28/33/5
f 13/23/5 15/18/5 19/31/5 17/27/5
f 36/34/3 22/35/3 34/36/3 21/37/3
f 14/24/4 13/23/4 33/38/4 22/39/4
f 13/23/5 17/27/5 35/30/5 33/38/5
f 18/21/3 14/20/3 22/35/3 36/34/3
f 25/40/3 27/41/3 31/42/3 29/43/3
f 16/17/3 20/22/3 27/41/3 25/40/3
f 20/44/10 19/31/10 28/33/10 27/45/10
f 15/18/4 16/17/4 25/40/4 26/32/4
f 30/46/6 29/43/6 31/42/6 32/47/6
f 29/43/6 30/46/6 42/48/6 41/49/6
f 28/33/5 26/32/5 30/46/5 32/47/5
f 27/45/10 28/33/10 32/47/10 31/50/10
f 33/38/5 35/30/5 23/51/5 24/52/5
f 34/36/3 22/35/3 37/53/3 44/54/3
f 35/30/10 36/29/10 21/55/10 23/51/10
f 34/56/2 24/52/2 23/51/2 21/57/2
f 40/58/4 39/59/4 41/49/4 42/48/4
f 37/60/4 43/61/4 38/62/4 44/63/4
f 22/39/6 33/38/6 43/61/6 37/60/6
f 25/40/3 29/43/3 41/49/3 39/59/3
f 26/32/2 25/40/2 39/59/2 40/58/2
f 33/38/5 24/52/5 38/62/5 43/61/5
f 30/46/5 26/32/5 40/58/5 42/48/5
f 24/52/2 34/56/2 44/63/2 38/62/2
f 45/64/11 47/65/11 51/66/11 49/67/11
f 18/28/2 17/27/2 45/64/2 46/68/2
f 19/31/6 20/44/6 48/69/6 47/65/6
f 17/27/5 19/31/5 47/65/5 45/64/5
f 52/70/3 50/71/3 54/72/3 56/73/3
f 48/26/12 46/25/12 50/71/12 52/70/12
f 46/68/13 45/64/13 49/67/13 50/74/13
f 47/65/14 48/69/14 52/75/14 51/66/14
f 55/76/15 56/77/15 60/78/15 59/79/15
f 50/74/2 49/67/2 53/80/2 54/81/2
f 51/66/6 52/75/6 56/77/6 55/76/6
f 49/67/5 51/66/5 55/76/5 53/80/5
f 59/79/10 60/78/10 58/82/10 57/83/10
f 53/80/16 55/76/16 59/79/16 57/83/16
f 56/73/17 54/72/17 58/84/17 60/85/17
f 54/81/18 53/80/18 57/83/18 58/82/18
